<?xml version="1.0" ?><svg height="512" id="svg2" version="1.1" width="512" xmlns="http://www.w3.org/2000/svg" xmlns:cc="http://creativecommons.org/ns#" xmlns:dc="http://purl.org/dc/elements/1.1/" xmlns:inkscape="http://www.inkscape.org/namespaces/inkscape" xmlns:rdf="http://www.w3.org/1999/02/22-rdf-syntax-ns#" xmlns:sodipodi="http://sodipodi.sourceforge.net/DTD/sodipodi-0.dtd" xmlns:svg="http://www.w3.org/2000/svg"><defs id="defs4"><clipPath clipPathUnits="userSpaceOnUse" id="clipPath3847"><rect height="401.85031" id="rect3849" ry="24.940269" style="fill:#005cc8;fill-opacity:1;stroke:none" width="405.50885" x="192.91168" y="341.59683"/></clipPath><clipPath clipPathUnits="userSpaceOnUse" id="clipPath4206"><rect height="342.67416" id="rect4208" ry="21.83189" style="fill:#005ad2;fill-opacity:1;stroke:none" width="342.67416" x="275.56522" y="396.76877"/></clipPath><clipPath clipPathUnits="userSpaceOnUse" id="clipPath2999"><rect height="389.84692" id="rect3001" rx="162.65929" ry="153.92024" style="fill:#008f59;fill-opacity:1;stroke:none" width="411.98105" x="206.48637" y="349.59598"/></clipPath></defs><g id="layer1" transform="translate(0,-540.36218)"><rect height="506.55707" id="rect3851" rx="200" ry="200" style="fill:#008f59;fill-opacity:1;stroke:none" width="506.55707" x="3.1982057" y="544.98157"/><g clip-path="url(#clipPath2999)" id="g4145" style="opacity:0.48961247;fill:#000000;fill-opacity:0.05882353" transform="matrix(1.229564,0,0,1.2993743,-250.69,90.725524)"><g id="g4147" style="fill:#000000;fill-opacity:0.05882353;stroke:none"><path d="m 561.53848,561.01605 c 0,61.06995 -50.79847,110.57692 -113.46155,110.57692 l 707.10677,707.10683 c 62.6631,0 113.4616,-49.507 113.4616,-110.577 z" id="path4149" style="fill:#000000;fill-opacity:0.05882353"/><path d="m 448.07693,671.59297 c -31.86024,0 -60.65337,-12.79797 -81.26213,-33.40672 l 707.1068,707.10675 c 20.6087,20.6088 49.4019,33.4068 81.2621,33.4068 z" id="path4151" style="fill:#000000;fill-opacity:0.05882353"/><path d="m 366.8148,638.18625 c -19.92477,-19.92478 -32.19941,-47.15048 -32.19941,-77.1702 l 707.10681,707.10675 c 0,30.0197 12.2746,57.2455 32.1994,77.1702 z" id="path4153" style="fill:#000000;fill-opacity:0.05882353"/><path d="m 334.61539,561.01605 c 0,-61.06994 50.79847,-110.57692 113.46154,-110.57692 l 707.10677,707.10677 c -62.6631,0 -113.4615,49.507 -113.4615,110.5769 z" id="path4155" style="fill:#000000;fill-opacity:0.05882353"/><path d="m 448.07693,450.43913 c 31.86024,0 60.65338,12.79797 81.26214,33.40672 l 707.10673,707.10675 c -20.6087,-20.6087 -49.4018,-33.4067 -81.2621,-33.4067 z" id="path4157" style="fill:#000000;fill-opacity:0.05882353"/><path d="m 529.33907,483.84585 c 19.92477,19.92478 32.19941,47.15049 32.19941,77.1702 l 707.10682,707.10675 c 0,-30.0197 -12.2747,-57.2454 -32.1995,-77.1702 z" id="path4159" style="fill:#000000;fill-opacity:0.05882353"/></g><path d="m 561.53848,561.01605 c 0,61.06995 -50.79847,110.57692 -113.46155,110.57692 -62.66307,0 -113.46154,-49.50697 -113.46154,-110.57692 0,-61.06994 50.79847,-110.57692 113.46154,-110.57692 62.66308,0 113.46155,49.50698 113.46155,110.57692 z" id="path4111" style="fill:#000000;fill-opacity:0.05882353;stroke:none"/></g><path d="m 295.1122,705.99146 h -12.85089 v -12.37469 h 12.85089 m -64.25443,12.37469 H 218.0069 v -12.37469 h 12.85087 m 71.06539,-22.76943 16.83466,-16.21084 c 2.44165,-2.35121 2.44165,-6.3111 0,-8.78603 -2.57018,-2.35121 -6.68247,-2.35121 -9.12413,0 l -19.01931,18.31454 c -10.2807,-4.82614 -21.84651,-7.67231 -34.05483,-7.67231 -12.33685,0 -23.90265,2.84617 -34.18334,7.79605 l -19.14783,-18.43828 c -2.44166,-2.35121 -6.55395,-2.35121 -8.99561,0 -2.57018,2.47493 -2.57018,6.43482 0,8.78603 l 16.83466,16.21084 c -19.14781,13.61215 -31.61318,35.14412 -31.61318,59.8935 h 154.21059 c 0,-24.74938 -12.85089,-46.40509 -31.74168,-59.8935 m 63.86887,72.26819 a 19.276322,18.562036 0 0 0 -19.27631,18.56204 v 86.62283 a 19.276322,18.562036 0 0 0 19.27631,18.56203 19.276322,18.562036 0 0 0 19.27633,-18.56203 v -86.62283 a 19.276322,18.562036 0 0 0 -19.27633,-18.56204 m -218.46497,0 a 19.276322,18.562036 0 0 0 -19.27632,18.56204 v 86.62283 a 19.276322,18.562036 0 0 0 19.27632,18.56203 19.276322,18.562036 0 0 0 19.27631,-18.56203 v -86.62283 a 19.276322,18.562036 0 0 0 -19.27631,-18.56204 m 32.12719,123.7469 a 12.850881,12.374691 0 0 0 12.85089,12.37469 h 12.85088 v 43.31142 a 19.276322,18.562036 0 0 0 19.27632,18.56209 19.276322,18.562036 0 0 0 19.27631,-18.56209 v -43.31142 h 25.70178 v 43.31142 a 19.276322,18.562036 0 0 0 19.27632,18.56209 19.276322,18.562036 0 0 0 19.27632,-18.56209 v -43.31142 h 12.85088 a 12.850881,12.374691 0 0 0 12.85089,-12.37469 V 743.11553 H 179.45425 v 123.7469 z" id="path3054" style="fill:#ffffff"/></g></svg>